<?xml version="1.0" encoding="utf-8"?>
<!-- Generator: Adobe Illustrator 22.0.1, SVG Export Plug-In . SVG Version: 6.00 Build 0)  -->
<svg version="1.1" id="Capa_1" xmlns="http://www.w3.org/2000/svg" xmlns:xlink="http://www.w3.org/1999/xlink" x="0px" y="0px"
	 viewBox="0 0 564.06 552.06" enable-background="new 0 0 564.06 552.06" xml:space="preserve">
<g>
	<g>
		<path fill="#683C11" d="M453.35,128.51c-37.08,3.61-93.75,41.45-104.99,77.55c34.97-26.37,67.58-41.05,106.06-40.25
			c-0.06-11.1,0.17-24.39-1.06-34.49L453.35,128.51z"/>
		<g>
			<path fill="#789B0D" d="M332.75,33.47c-0.03-0.02-0.05-0.03-0.07-0.04l-0.33,1.13c-16.5,60.52-3.92,114.04,66.15,129.45
				C428.4,105.92,388.07,57.44,332.75,33.47z"/>
			<g>
				<path fill="#95C11F" d="M332.75,33.47c28.5,32.92,56.57,79.64,65.75,130.55C428.4,105.92,388.07,57.44,332.75,33.47z"/>
			</g>
		</g>
		<path fill="#E6332A" d="M378.77,212.52c-14.59-4.27-22.39-7.13-32.87-20.28c-7.03-8.81-18.36-28.62-20.52-33.39l-4.02-7.66
			c-32.84-64.67-145.39-83.43-195.38-16.43c-26.46,35.48-34.36,61.86-45.88,103.82c-11.46,41.74-14.63,98.04-5.68,139.17
			c5.17,23.82,8.62,33.18,27.19,45.57c14.99,9.99,30.87,16.17,45.08,29.92c26.82,25.96,33.71,62.38,76.12,65.02
			c39.72,2.48,80.02-8.1,115.76-24.62c37.98-17.56,53.13-24.59,87.96-47.91c60.65-40.61,91.39-128.17,39.11-180.77
			C436.8,235.93,417.26,223.79,378.77,212.52z"/>
		<path fill="#FF4C48" d="M234.21,126.97c-18.45-3.62-35.31,3.14-37.66,15.09c-2.34,11.94,10.73,24.54,29.17,28.17
			c18.47,3.62,35.33-3.13,37.67-15.08C265.74,143.2,252.67,130.59,234.21,126.97z"/>
		<path fill="#FF4C48" d="M159.63,143.72c-5.05,5.62-4.57,14.26,1.04,19.3c5.62,5.03,14.27,4.57,19.3-1.05
			c5.04-5.63,4.58-14.25-1.04-19.31C173.32,137.64,164.68,138.1,159.63,143.72z"/>
		<g>
			<path fill="#CE1915" d="M464.69,264.02c9.93,41.31,0.6,83.14-52.71,130.84c-58.15,52.02-146.67,103.96-223.34,109.83
				c8.58,7.46,19.14,12.65,34.18,13.58c39.72,2.48,80.02-8.1,115.76-24.62c37.98-17.56,53.13-24.59,87.96-47.91
				c60.65-40.61,91.39-128.17,39.11-180.77C465.32,264.64,465.01,264.32,464.69,264.02z"/>
		</g>
	</g>
</g>
</svg>
