<?xml version="1.0" encoding="utf-8"?>
<!-- Generator: Adobe Illustrator 22.0.1, SVG Export Plug-In . SVG Version: 6.00 Build 0)  -->
<svg version="1.1" id="Layer_4" xmlns="http://www.w3.org/2000/svg" xmlns:xlink="http://www.w3.org/1999/xlink" x="0px" y="0px"
	 viewBox="0 0 450 450" style="enable-background:new 0 0 450 450;" xml:space="preserve">
<g>
	<path style="fill:#6D777C;" d="M13.5,340.1c0.2,0.2,0.4,0.4,0.6,0.5C13.9,340.4,13.7,340.2,13.5,340.1z"/>
	<path style="fill:#C7F6FF;" d="M365.8,147.2c4.8-2.7,73.5,19.1,60.5,50c-13,30.9-72.9,19-72.9,19s81.4,38.8,56.4,82.7
		c-25.1,43.9-108.5,24-108.5,24s33.4,34.3,9.6,56c-23.8,21.7-64.5-18.2-64.5-18.2s10.4,62-31.7,57.3c-42.2-4.8-65.5-53-65.5-53
		s-56.5,34.8-89.7-8.2c-33.3-42.9-17.7-90.9,13.9-107c0,0-36.2,6.2-27.7-30.4s69.9-29.7,69.9-29.7s-64.6-34.4-30.1-75.9
		c34.5-41.5,87.1-14.2,87.1-14.2s14.7-49,66.2-65.4c51.5-16.4,53.6,60,53.6,60s23.9-66.7,69.6-37.8
		C407.8,85.3,365.8,147.2,365.8,147.2z"/>
	<g>
		<defs>
			<path id="SVGID_1_" d="M365.8,147.2c4.8-2.7,73.5,19.1,60.5,50c-13,30.9-72.9,19-72.9,19s81.4,38.8,56.4,82.7
				c-25.1,43.9-108.5,24-108.5,24s33.4,34.3,9.6,56c-23.8,21.7-64.5-18.2-64.5-18.2s10.4,62-31.7,57.3c-42.2-4.8-65.5-53-65.5-53
				s-56.5,34.8-89.7-8.2c-33.3-42.9-17.7-90.9,13.9-107c0,0-36.2,6.2-27.7-30.4s69.9-29.7,69.9-29.7s-64.6-34.4-30.1-75.9
				c34.5-41.5,87.1-14.2,87.1-14.2s14.7-49,66.2-65.4c51.5-16.4,53.6,60,53.6,60s23.9-66.7,69.6-37.8
				C407.8,85.3,365.8,147.2,365.8,147.2z"/>
		</defs>
		<clipPath id="SVGID_2_">
			<use xlink:href="#SVGID_1_"  style="overflow:visible;"/>
		</clipPath>
		<g style="clip-path:url(#SVGID_2_);">
			<linearGradient id="SVGID_3_" gradientUnits="userSpaceOnUse" x1="322.3686" y1="-31.4835" x2="155.1942" y2="417.1359">
				<stop  offset="0" style="stop-color:#F9CBB7"/>
				<stop  offset="1" style="stop-color:#FCAEA2"/>
			</linearGradient>
			<path style="fill:url(#SVGID_3_);" d="M384.7,391.5c-122.5,33.7-222.8,18.4-268.4,7.5C99.1,395,84.5,393,84.5,393
				c-2.2-18.2,6.7-99.5,14.2-115.8c16.5-36,55.9-76.9,61.6-108.3c8.2-45.6-56.8-148.2-55.8-206.1h260.8c0,0-27.4,98.5-41.7,138.4
				c-14.3,40-32.2,60.6,25.4,133.2c10.9,13.8,17.8,29.8,23,44.1C382,305.9,384.7,391.5,384.7,391.5z"/>
			<linearGradient id="SVGID_4_" gradientUnits="userSpaceOnUse" x1="273.276" y1="286.7506" x2="171.7226" y2="439.9864">
				<stop  offset="0" style="stop-color:#69A29A"/>
				<stop  offset="1" style="stop-color:#4F837F"/>
			</linearGradient>
			<path style="fill:url(#SVGID_4_);" d="M384.7,391.5C216.2,437.9,84.5,393,84.5,393c-1.3-10.8,4.2-85.4,6.8-95.4
				c1.8-7,4.4-13.8,7.4-20.4c31.3,11.4,131.8,40,273.4,1.4c2.7,7.4,4.8,14.4,6.4,20.8C382.9,316.5,384.7,391.5,384.7,391.5z"/>
			<path style="fill:#C57D6D;" d="M242.1,248c5.1-0.4,5.7-17.6,0-16.1C236.4,233.3,234.8,248.6,242.1,248z"/>
			<path style="fill:#098279;" d="M378.5,299.3c-133.4,29.6-163.6,36.3-287.2-1.7v-0.1c1.8-7,4.4-13.8,7.4-20.4
				c31.3,11.4,131.8,40,273.4,1.4C374.7,286,376.9,293,378.5,299.3z"/>
			<path style="opacity:0.2;fill:#ED9489;" d="M167.7,166.1c-7.4,32.3-52.6,182.7-51.4,233C99.1,395,84.5,393,84.5,393
				c-2.2-18.2,6.7-99.5,14.2-115.8c16.5-36,55.9-76.9,61.6-108.3c8.2-45.6-55.3-148.2-55.8-206.1h16.6
				C135.7-5.8,175.2,133.4,167.7,166.1z"/>
			<g>
				<linearGradient id="SVGID_5_" gradientUnits="userSpaceOnUse" x1="360.8868" y1="225.1768" x2="109.2962" y2="186.7589">
					<stop  offset="2.590900e-04" style="stop-color:#FFE41B"/>
					<stop  offset="1" style="stop-color:#FFD500"/>
				</linearGradient>
				<path style="fill:url(#SVGID_5_);" d="M388.4,260.8v10.6c-2.1-0.3-4.3-0.5-6.4-0.8c-53.5-6.6-83.3-12.4-153.5-33.8
					c-7.5-2.3-15-4.7-22.6-7.4c-22.2-7.8-45.4-15.6-66.7-29.1c-26.9-17,21.8-48.4,21.8-48.4l0.1,8.9c0,0-21.5,8.2-21.5,23
					c0,11.9,53.2,33.4,118.5,49.9C335.8,253.3,388.4,260.8,388.4,260.8z"/>
				<linearGradient id="SVGID_6_" gradientUnits="userSpaceOnUse" x1="239.1381" y1="231.7967" x2="197.4065" y2="225.4243">
					<stop  offset="2.590900e-04" style="stop-color:#FFE41B"/>
					<stop  offset="1" style="stop-color:#FFD500"/>
				</linearGradient>
				<path style="opacity:0.4;fill:url(#SVGID_6_);" d="M245.1,230.3c-4.2,1.6-12.8,5-16.6,6.4c-7.5-2.3-20.3-6.6-27.8-9.2l13.7-6.2
					C222.3,223.9,237.6,228.2,245.1,230.3z"/>
				<path style="opacity:0.5;fill:#8C713B;" d="M388.4,260.8v10.6c-2.1-0.3-4.3-0.5-6.4-0.8c0-2.3-0.1-8.2,0-10.4
					C386.1,260.8,388.4,260.8,388.4,260.8z"/>
			</g>
			<linearGradient id="SVGID_7_" gradientUnits="userSpaceOnUse" x1="294.0976" y1="232.3099" x2="64.4114" y2="197.2369">
				<stop  offset="2.590900e-04" style="stop-color:#FFE41B"/>
				<stop  offset="1" style="stop-color:#FFD500"/>
			</linearGradient>
			<path style="fill:url(#SVGID_7_);" d="M323.2,194c-12,7.8-42.9,20.6-81.7,34.1c-4.5,1.6-9.2,3.2-13.9,4.7
				c-53.6,18.1-99.9,36.6-150.1,45.6c-1.4,0.3-2.8,0.5-4.1,0.7v-11c0,0,1.8-0.6,5-1.3c18.8-4.5,66.8-20.2,94.6-28.4
				c10.3-3,128.2-43.1,138.1-48.1c15.6-7.8,24.9-13.1-1.1-28.6l-0.7-7.7C309.6,155.8,352.9,174.5,323.2,194z"/>
			<linearGradient id="SVGID_8_" gradientUnits="userSpaceOnUse" x1="239.6565" y1="221.4542" x2="231.7827" y2="70.7183">
				<stop  offset="0" style="stop-color:#F9CBB7"/>
				<stop  offset="1" style="stop-color:#FCAEA2"/>
			</linearGradient>
			<path style="fill:url(#SVGID_8_);" d="M314.1,117.8c-2.2,0.2-155.4,1.7-160.7,1.8c27.9,0.2,128.5,1,161.9,0.1
				C315.2,118.5,314.8,117.8,314.1,117.8z"/>
			<linearGradient id="SVGID_9_" gradientUnits="userSpaceOnUse" x1="-164.6456" y1="-3260.2495" x2="255.7055" y2="137.5916">
				<stop  offset="7.971900e-04" style="stop-color:#D0355D"/>
				<stop  offset="0.9991" style="stop-color:#E6375D"/>
			</linearGradient>
			<path style="fill:url(#SVGID_9_);" d="M373.2-76c-8,38.8-46.5,180.6-46.5,180.6c-1.3,9.4-1.8,14.7-1.8,14.7
				c-1.7,0.2-5,0.3-9.7,0.4c-0.4,0-0.9,0-1.3,0c-34.7,0.8-133,0.1-160.5-0.2c-1.2,0-2.2,0-3.1,0c-2.7,0-4.2,0-4.2,0
				c-6.9-40-60.9-195.8-60.9-195.8c1.9-1.4,4.6-3.1,7.9-5.1c13.5-8,37.1-19.8,56.1-29.1c16.6-8.1,29.8-14.3,29.8-14.3
				c21.9-6.5,63-7.9,69.4-7.9c21,0.3,43.5,8.1,63.6,17.9c23.3,11.3,43.2,25.2,53.6,32.9C370.5-78.2,373.2-76,373.2-76z"/>
			<linearGradient id="SVGID_10_" gradientUnits="userSpaceOnUse" x1="85.2891" y1="19.3099" x2="158.9728" y2="19.3099">
				<stop  offset="7.971900e-04" style="stop-color:#D0355D"/>
				<stop  offset="0.9991" style="stop-color:#E6375D"/>
			</linearGradient>
			<path style="opacity:0.63;fill:url(#SVGID_10_);" d="M149.4,119.6c-2.7,0-3.3,0-3.3,0c-6.9-40-60.9-195.8-60.9-195.8
				c1.9-1.4,3.9-2.7,7.2-4.7c8,12.3,28,38,43.9,70.9c16.9,34.9,20.6,63.5,22.4,80.6C160.1,82.4,153.5,106.3,149.4,119.6z"/>
		</g>
	</g>
</g>
</svg>
